<?xml version="1.0" encoding="UTF-8"?>
<svg xmlns="http://www.w3.org/2000/svg" xmlns:xlink="http://www.w3.org/1999/xlink" width="507pt" height="507pt" viewBox="0 0 507 507" version="1.1">
<defs>
<filter id="alpha" filterUnits="objectBoundingBox" x="0%" y="0%" width="100%" height="100%">
  <feColorMatrix type="matrix" in="SourceGraphic" values="0 0 0 0 1 0 0 0 0 1 0 0 0 0 1 0 0 0 1 0"/>
</filter>
<mask id="mask0">
  <g filter="url(#alpha)">
<rect x="0" y="0" width="507" height="507" style="fill:rgb(0%,0%,0%);fill-opacity:0.2;stroke:none;"/>
  </g>
</mask>
<clipPath id="clip1">
  <rect x="0" y="0" width="507" height="507"/>
</clipPath>
<g id="surface5" clip-path="url(#clip1)">
<path style=" stroke:none;fill-rule:nonzero;fill:rgb(0%,0%,0%);fill-opacity:1;" d="M 209.511719 503.199219 C 207.988281 502.925781 206.46875 502.648438 204.953125 502.359375 C 203.960938 473.625 200.566406 414.652344 188.976562 352.890625 C 182.640625 319.085938 173.84375 284.4375 161.640625 253.460938 C 157.460938 242.746094 152.683594 232.269531 147.335938 222.082031 C 135.007812 198.796875 120.050781 179.191406 101.917969 165.90625 L 104.585938 162.261719 C 119.671875 173.316406 133.226562 188.835938 145.253906 208.824219 C 148.859375 214.808594 152.324219 221.191406 155.648438 227.976562 C 159.210938 235.238281 162.609375 242.945312 165.839844 251.101562 C 167.902344 256.289062 169.894531 261.660156 171.816406 267.210938 C 180.1875 291.308594 187.300781 318.800781 193.164062 349.695312 C 194.460938 356.519531 195.695312 363.511719 196.867188 370.671875 C 205.949219 426.148438 208.6875 477.441406 209.511719 503.199219 Z M 209.511719 503.199219 "/>
</g>
<mask id="mask1">
  <g filter="url(#alpha)">
<rect x="0" y="0" width="507" height="507" style="fill:rgb(0%,0%,0%);fill-opacity:0.2;stroke:none;"/>
  </g>
</mask>
<clipPath id="clip2">
  <rect x="0" y="0" width="507" height="507"/>
</clipPath>
<g id="surface8" clip-path="url(#clip2)">
<path style=" stroke:none;fill-rule:nonzero;fill:rgb(0%,0%,0%);fill-opacity:1;" d="M 151.925781 485.828125 C 150.308594 485.121094 148.6875 484.394531 147.082031 483.644531 C 145.515625 466.621094 142.636719 445.5 137.371094 425.453125 C 135.0625 416.449219 132.105469 407.625 128.511719 399.050781 C 122.503906 384.988281 114.726562 373.035156 104.671875 365.664062 L 107.339844 362.023438 C 117.871094 369.734375 125.992188 381.921875 132.269531 396.179688 C 139.34375 412.246094 144.058594 430.941406 147.203125 448.808594 C 149.535156 462.074219 151.003906 474.890625 151.925781 485.828125 Z M 151.925781 485.828125 "/>
</g>
<mask id="mask2">
  <g filter="url(#alpha)">
<rect x="0" y="0" width="507" height="507" style="fill:rgb(0%,0%,0%);fill-opacity:0.2;stroke:none;"/>
  </g>
</mask>
<clipPath id="clip3">
  <rect x="0" y="0" width="507" height="507"/>
</clipPath>
<g id="surface11" clip-path="url(#clip3)">
<path style=" stroke:none;fill-rule:nonzero;fill:rgb(0%,0%,0%);fill-opacity:1;" d="M 99.261719 143.234375 C 99.261719 155.699219 89.160156 165.800781 76.695312 165.800781 C 64.234375 165.800781 54.128906 155.699219 54.128906 143.234375 C 54.128906 130.773438 64.234375 120.667969 76.695312 120.667969 C 89.160156 120.667969 99.261719 130.773438 99.261719 143.234375 Z M 99.261719 143.234375 "/>
</g>
<mask id="mask3">
  <g filter="url(#alpha)">
<rect x="0" y="0" width="507" height="507" style="fill:rgb(0%,0%,0%);fill-opacity:0.2;stroke:none;"/>
  </g>
</mask>
<clipPath id="clip4">
  <rect x="0" y="0" width="507" height="507"/>
</clipPath>
<g id="surface14" clip-path="url(#clip4)">
<path style=" stroke:none;fill-rule:nonzero;fill:rgb(0%,0%,0%);fill-opacity:1;" d="M 106.53125 337.492188 C 106.53125 349.957031 96.425781 360.058594 83.964844 360.058594 C 71.5 360.058594 61.398438 349.957031 61.398438 337.492188 C 61.398438 325.03125 71.5 314.925781 83.964844 314.925781 C 96.425781 314.925781 106.53125 325.03125 106.53125 337.492188 Z M 106.53125 337.492188 "/>
</g>
<mask id="mask4">
  <g filter="url(#alpha)">
<rect x="0" y="0" width="507" height="507" style="fill:rgb(0%,0%,0%);fill-opacity:0.2;stroke:none;"/>
  </g>
</mask>
<clipPath id="clip5">
  <rect x="0" y="0" width="507" height="507"/>
</clipPath>
<g id="surface17" clip-path="url(#clip5)">
<path style=" stroke:none;fill-rule:nonzero;fill:rgb(0%,0%,0%);fill-opacity:1;" d="M 166.285156 181.140625 C 161.5 208.140625 172.0625 232.585938 172.0625 232.585938 C 172.0625 232.585938 190.386719 213.257812 195.171875 186.261719 C 199.957031 159.261719 189.394531 134.816406 189.394531 134.816406 C 189.394531 134.816406 171.070312 154.144531 166.285156 181.140625 Z M 166.285156 181.140625 "/>
</g>
<mask id="mask5">
  <g filter="url(#alpha)">
<rect x="0" y="0" width="507" height="507" style="fill:rgb(0%,0%,0%);fill-opacity:0.2;stroke:none;"/>
  </g>
</mask>
<clipPath id="clip6">
  <rect x="0" y="0" width="507" height="507"/>
</clipPath>
<g id="surface20" clip-path="url(#clip6)">
<path style=" stroke:none;fill-rule:nonzero;fill:rgb(0%,0%,0%);fill-opacity:1;" d="M 91.289062 245.226562 C 117.039062 254.644531 142.914062 248.601562 142.914062 248.601562 C 142.914062 248.601562 127.042969 227.292969 101.289062 217.875 C 75.539062 208.460938 49.664062 214.503906 49.664062 214.503906 C 49.664062 214.503906 65.535156 235.8125 91.289062 245.226562 Z M 91.289062 245.226562 "/>
</g>
<mask id="mask6">
  <g filter="url(#alpha)">
<rect x="0" y="0" width="507" height="507" style="fill:rgb(0%,0%,0%);fill-opacity:0.2;stroke:none;"/>
  </g>
</mask>
<clipPath id="clip7">
  <rect x="0" y="0" width="507" height="507"/>
</clipPath>
<g id="surface23" clip-path="url(#clip7)">
<path style=" stroke:none;fill-rule:nonzero;fill:rgb(0%,0%,0%);fill-opacity:1;" d="M 86.921875 417.25 C 104.972656 423.851562 123.132812 419.542969 123.132812 419.542969 C 123.132812 419.542969 112.03125 404.539062 93.984375 397.9375 C 75.933594 391.335938 57.769531 395.644531 57.769531 395.644531 C 57.769531 395.644531 68.871094 410.648438 86.921875 417.25 Z M 86.921875 417.25 "/>
</g>
</defs>
<g id="surface1">
<path style=" stroke:none;fill-rule:nonzero;fill:rgb(91.372549%,92.54902%,93.72549%);fill-opacity:1;" d="M 507 253.5 C 507.046875 287.816406 500.097656 321.78125 486.585938 353.324219 L 485.746094 355.261719 C 438.703125 462.28125 324.667969 523.355469 209.511719 503.199219 C 207.988281 502.925781 206.46875 502.648438 204.953125 502.359375 C 189.273438 499.316406 173.917969 494.789062 159.097656 488.835938 C 156.691406 487.867188 154.300781 486.863281 151.925781 485.828125 C 150.308594 485.121094 148.6875 484.394531 147.082031 483.644531 C 57.4375 442.097656 0.0507812 352.304688 0 253.5 C 0 113.496094 113.496094 0 253.5 0 C 393.503906 0 507 113.496094 507 253.5 Z M 507 253.5 "/>
<use xlink:href="#surface5" mask="url(#mask0)"/>
<use xlink:href="#surface8" mask="url(#mask1)"/>
<use xlink:href="#surface11" mask="url(#mask2)"/>
<use xlink:href="#surface14" mask="url(#mask3)"/>
<use xlink:href="#surface17" mask="url(#mask4)"/>
<use xlink:href="#surface20" mask="url(#mask5)"/>
<use xlink:href="#surface23" mask="url(#mask6)"/>
<path style=" stroke:none;fill-rule:nonzero;fill:rgb(81.568627%,80.392157%,88.235294%);fill-opacity:1;" d="M 351.808594 210.808594 C 351.808594 265.390625 307.558594 309.636719 252.980469 309.636719 C 198.398438 309.636719 154.152344 265.390625 154.152344 210.808594 C 154.152344 156.226562 198.398438 111.980469 252.980469 111.980469 C 307.558594 111.980469 351.808594 156.226562 351.808594 210.808594 Z M 351.808594 210.808594 "/>
<path style=" stroke:none;fill-rule:nonzero;fill:rgb(81.568627%,80.392157%,88.235294%);fill-opacity:1;" d="M 214.375 286.472656 C 214.375 286.472656 226.726562 345.152344 226.726562 351.328125 C 226.726562 357.507812 285.40625 385.300781 285.40625 385.300781 L 337.910156 376.035156 L 356.441406 320.445312 C 356.441406 320.445312 325.554688 274.121094 325.554688 255.589844 Z M 214.375 286.472656 "/>
<path style=" stroke:none;fill-rule:nonzero;fill:rgb(18.431373%,18.039216%,25.490196%);fill-opacity:1;" d="M 486.585938 353.324219 L 485.746094 355.261719 C 438.703125 462.28125 324.667969 523.355469 209.511719 503.199219 C 207.988281 502.925781 206.46875 502.648438 204.953125 502.359375 C 189.273438 499.316406 173.917969 494.789062 159.097656 488.835938 C 156.691406 487.867188 154.300781 486.863281 151.925781 485.828125 C 150.308594 485.121094 148.6875 484.394531 147.082031 483.644531 C 132.535156 476.90625 118.660156 468.796875 105.644531 459.433594 L 93.929688 425.453125 L 100.515625 420.425781 L 114.058594 410.085938 L 128.511719 399.050781 L 132.269531 396.179688 L 188.976562 352.890625 L 193.164062 349.695312 L 222.636719 327.195312 L 222.644531 327.1875 C 222.644531 327.1875 254.519531 379.125 300.847656 363.683594 C 347.175781 348.238281 346.164062 303.960938 346.164062 303.960938 Z M 486.585938 353.324219 "/>
<path style=" stroke:none;fill-rule:nonzero;fill:rgb(18.431373%,18.039216%,25.490196%);fill-opacity:1;" d="M 167.277344 131.1875 C 167.277344 131.1875 198.652344 63.203125 258.792969 78.890625 C 318.933594 94.578125 352.925781 118.113281 355.539062 141.644531 C 358.15625 165.179688 354.234375 200.480469 354.234375 200.480469 C 354.234375 200.480469 347.695312 152.105469 305.859375 162.5625 C 264.023438 173.023438 198.652344 165.179688 198.652344 165.179688 L 188.195312 259.3125 C 188.195312 259.3125 176.429688 242.316406 163.355469 252.773438 C 150.28125 263.234375 125.441406 152.105469 167.277344 131.1875 Z M 167.277344 131.1875 "/>
<path style=" stroke:none;fill-rule:nonzero;fill:rgb(18.431373%,18.039216%,25.490196%);fill-opacity:1;" d="M 159.097656 488.835938 C 156.691406 487.867188 154.300781 486.863281 151.925781 485.828125 C 150.308594 485.121094 148.6875 484.394531 147.082031 483.644531 C 123.023438 472.488281 100.855469 457.632812 81.390625 439.621094 C 88.28125 430.230469 93.929688 425.453125 93.929688 425.453125 L 140.257812 425.453125 L 147.203125 448.808594 Z M 159.097656 488.835938 "/>
<path style=" stroke:none;fill-rule:nonzero;fill:rgb(18.431373%,18.039216%,25.490196%);fill-opacity:1;" d="M 446.003906 348.238281 L 485.746094 355.261719 C 475.109375 379.488281 460.746094 401.902344 443.175781 421.6875 Z M 446.003906 348.238281 "/>
</g>
</svg>
